<svg width="571" height="209" viewBox="0 0 571 209" fill="none" xmlns="http://www.w3.org/2000/svg">
<path d="M530.764 28.7115C519.841 31.8558 519.139 32.1702 517.636 35.6288C516.634 37.6201 515.632 42.1267 515.331 45.6901C514.729 51.4544 514.829 52.1881 516.634 52.817C519.439 53.7602 525.252 50.9304 527.758 47.2622C530.664 43.07 534.773 41.3931 539.484 42.2315C549.806 44.118 551.309 44.118 553.814 42.0219C555.164 40.9047 555.394 38.9422 554.337 37.5509L551.208 33.4278C548.503 29.7596 545.396 26.5107 544.294 26.0914C543.091 25.6722 537.679 26.7203 530.764 28.7115ZM544.895 30.3885C548.102 33.7422 545.997 38.5633 541.287 38.6682C536.978 38.6682 535.174 33.1134 538.381 29.8644C540.486 27.6635 542.389 27.7684 544.895 30.3885ZM527.557 34.6855C529.461 36.6768 529.061 41.6027 526.856 42.8603C523.749 44.5373 521.945 44.118 520.142 41.2883C518.638 38.8778 518.638 38.4585 520.142 36.048C521.945 33.2182 525.553 32.5894 527.557 34.6855ZM536.777 39.0873C536.777 40.6595 531.967 42.3363 530.864 41.2883C530.163 40.4499 533.671 37.6201 535.474 37.6201C536.176 37.6201 536.777 38.2489 536.777 39.0873Z" fill="black"/>
<path d="M479.416 43.9774C480.212 46.8368 480.908 49.1667 480.908 49.2726C480.908 49.4844 481.902 49.5903 483.194 49.5903C492.239 49.5903 489.357 60.922 479.019 65.37C476.534 66.5349 475.341 66.5349 472.956 65.4759C469.775 64.0991 469.178 61.6633 470.967 57.9567C471.961 56.0504 471.664 53.9323 469.377 45.4601C468.979 44.2952 468.284 44.6129 466.395 46.5191C459.636 53.1911 457.946 64.7345 462.717 70.8769C473.751 84.8563 498.701 73.1009 498.999 53.7206C499.098 45.3542 492.239 39 483.095 39C480.549 39 478.708 41.4423 479.396 43.9047L479.416 43.9774Z" fill="black"/>
<path d="M391.61 44.7537C386.109 50.9757 389.709 60.8273 398.61 63.8346C406.511 66.5308 408.611 69.4345 418.912 91.73C420.412 94.8411 422.712 97.5375 425.913 99.7154C433.613 105.004 437.413 105.937 469.416 110.396C473.716 110.915 478.217 112.159 479.517 112.989C486.718 117.862 485.617 130.307 475.216 161.728C472.016 171.373 469.016 180.29 468.616 181.431C467.516 184.542 473.816 174.38 479.816 163.491C493.418 138.603 499.018 116.826 494.418 106.767C491.418 100.233 487.017 98.8854 465.315 97.9522C455.015 97.4335 444.014 96.5003 440.813 95.8784C430.613 93.8038 419.112 87.6857 419.112 84.264C419.112 83.33 417.512 80.4267 415.512 77.7306C409.011 68.916 407.811 65.4938 408.611 58.6496C409.111 54.0867 408.911 51.8053 407.711 49.4202C403.91 41.8501 396.31 39.6723 391.61 44.7537ZM406.111 63.7309C406.111 64.2494 405.611 64.7679 405.011 64.7679C404.51 64.7679 404.311 64.2494 404.611 63.7309C404.911 63.1087 405.411 62.6939 405.711 62.6939C405.911 62.6939 406.111 63.1087 406.111 63.7309Z" fill="black"/>
<path d="M525.692 55.7461C515.648 67.7513 497.87 78.6277 481.498 82.8344C466.331 86.7339 436.802 87.9654 424.347 85.1944C420.229 84.271 421.735 86.2207 427.26 88.8888C435.998 93.0956 442.828 94.3271 462.414 95.0454C473.161 95.5579 483.406 96.482 485.918 97.3025C491.844 99.1493 496.564 103.869 498.071 109.411C500.481 118.645 496.263 135.986 487.122 154.558C482.804 163.383 480.493 167.385 473.262 178.26C470.249 182.878 488.027 164.614 492.747 158.252C501.184 146.863 504.7 138.038 511.128 112.283C516.752 89.402 520.971 75.4469 526.696 61.2869C530.915 50.6156 531.216 50 530.915 50C530.714 50 528.404 52.5652 525.692 55.7461Z" fill="black"/>
<path d="M503.962 145.671C498.537 157.11 498.537 156.376 504.866 165.401C508.282 170.438 514.41 176 516.319 176C517.022 176 517.223 174.636 516.721 172.012C516.118 168.024 509.387 137.171 508.986 136.016C508.885 135.701 506.574 140.109 503.962 145.671Z" fill="black"/>
<path d="M25.877 185V101.7H61.934C69.3913 101.7 75.8173 102.93 81.212 105.389C86.6067 107.769 90.7717 111.22 93.707 115.742C96.6423 120.264 98.11 125.659 98.11 131.926C98.11 138.114 96.6423 143.469 93.707 147.991C90.7717 152.513 86.6067 156.004 81.212 158.463C75.8173 160.843 69.3913 162.033 61.934 162.033H36.587L45.155 153.346V185H25.877ZM45.155 155.488L36.587 146.325H60.863C66.813 146.325 71.2557 145.056 74.191 142.517C77.1263 139.978 78.594 136.448 78.594 131.926C78.594 127.325 77.1263 123.755 74.191 121.216C71.2557 118.677 66.813 117.408 60.863 117.408H36.587L45.155 108.245V155.488ZM111.873 185V101.7H131.151V169.292H172.92V185H111.873ZM195.798 185V150.966L200.201 162.628L163.549 101.7H184.017L212.101 148.467H200.32L228.523 101.7H247.444L210.792 162.628L215.076 150.966V185H195.798ZM254.813 185V101.7H290.87C298.327 101.7 304.753 102.93 310.148 105.389C315.542 107.769 319.707 111.22 322.643 115.742C325.578 120.264 327.046 125.659 327.046 131.926C327.046 138.114 325.578 143.469 322.643 147.991C319.707 152.434 315.542 155.845 310.148 158.225C304.753 160.605 298.327 161.795 290.87 161.795H265.523L274.091 153.346V185H254.813ZM307.768 185L286.943 154.774H307.53L328.593 185H307.768ZM274.091 155.488L265.523 146.444H289.799C295.749 146.444 300.191 145.175 303.127 142.636C306.062 140.018 307.53 136.448 307.53 131.926C307.53 127.325 306.062 123.755 303.127 121.216C300.191 118.677 295.749 117.408 289.799 117.408H265.523L274.091 108.245V155.488ZM369.689 186.428C363.025 186.428 356.639 185.555 350.53 183.81C344.422 181.985 339.503 179.645 335.774 176.789L342.319 162.271C345.889 164.81 350.094 166.912 354.933 168.578C359.852 170.165 364.81 170.958 369.808 170.958C373.616 170.958 376.671 170.601 378.971 169.887C381.351 169.094 383.097 168.023 384.207 166.674C385.318 165.325 385.873 163.778 385.873 162.033C385.873 159.812 385.001 158.066 383.255 156.797C381.51 155.448 379.209 154.377 376.353 153.584C373.497 152.711 370.324 151.918 366.833 151.204C363.422 150.411 359.971 149.459 356.48 148.348C353.069 147.237 349.935 145.809 347.079 144.064C344.223 142.319 341.883 140.018 340.058 137.162C338.313 134.306 337.44 130.657 337.44 126.214C337.44 121.454 338.71 117.13 341.248 113.243C343.866 109.276 347.754 106.143 352.91 103.842C358.146 101.462 364.691 100.272 372.545 100.272C377.781 100.272 382.938 100.907 388.015 102.176C393.093 103.366 397.575 105.191 401.462 107.65L395.512 122.287C391.625 120.066 387.738 118.439 383.85 117.408C379.963 116.297 376.155 115.742 372.426 115.742C368.698 115.742 365.643 116.178 363.263 117.051C360.883 117.924 359.178 119.074 358.146 120.502C357.115 121.851 356.599 123.437 356.599 125.262C356.599 127.404 357.472 129.149 359.217 130.498C360.963 131.767 363.263 132.799 366.119 133.592C368.975 134.385 372.109 135.179 375.52 135.972C379.011 136.765 382.462 137.678 385.873 138.709C389.364 139.74 392.537 141.129 395.393 142.874C398.249 144.619 400.55 146.92 402.295 149.776C404.12 152.632 405.032 156.242 405.032 160.605C405.032 165.286 403.723 169.57 401.105 173.457C398.487 177.344 394.56 180.478 389.324 182.858C384.168 185.238 377.623 186.428 369.689 186.428ZM426.241 185.952C423.068 185.952 420.331 184.881 418.03 182.739C415.809 180.518 414.698 177.701 414.698 174.29C414.698 170.879 415.809 168.142 418.03 166.079C420.331 163.937 423.068 162.866 426.241 162.866C429.494 162.866 432.231 163.937 434.452 166.079C436.674 168.142 437.784 170.879 437.784 174.29C437.784 177.701 436.674 180.518 434.452 182.739C432.231 184.881 429.494 185.952 426.241 185.952Z" fill="black"/>
</svg>
